<?xml version="1.0" encoding="UTF-8"?> <svg xmlns="http://www.w3.org/2000/svg" width="43" height="43" viewBox="0 0 43 43" fill="none"> <path d="M21.5 43C18.6766 43 15.8808 42.4439 13.2723 41.3634C10.6638 40.2829 8.29366 38.6993 6.2972 36.7028C4.30074 34.7063 2.71707 32.3362 1.63659 29.7277C0.556113 27.1192 -1.06321e-06 24.3234 -9.39795e-07 21.5C-8.16379e-07 18.6766 0.556114 15.8808 1.63659 13.2723C2.71707 10.6638 4.30075 8.29366 6.29721 6.2972C8.29367 4.30074 10.6638 2.71706 13.2723 1.63659C15.8808 0.556112 18.6766 -1.31004e-06 21.5 -9.39795e-07L21.5 21.5L21.5 43Z" fill="#FEAE06"></path> <circle cx="22" cy="22" r="11" fill="#8200E8"></circle> <path fill-rule="evenodd" clip-rule="evenodd" d="M21.5 32.9889C15.6569 32.7275 11 27.9076 11 22.0001C11 16.0925 15.6569 11.2726 21.5 11.0112L21.5 21.5001L21.5 32.9889Z" fill="#FDDC33"></path> </svg> 