<?xml version="1.0" encoding="UTF-8"?> <svg xmlns="http://www.w3.org/2000/svg" width="128" height="59" viewBox="0 0 128 59" fill="none"> <path d="M54.6367 44.3844C53.8399 43.8945 53.2202 43.2263 52.7628 42.38C52.3053 41.5337 52.084 40.6132 52.084 39.5887C52.084 38.579 52.3053 37.6437 52.7628 36.7973C53.2202 35.951 53.8399 35.2829 54.6367 34.7929C55.4336 34.3029 56.3042 34.0505 57.278 34.0505C57.9568 34.0505 58.6061 34.1842 59.1815 34.4514C59.7718 34.7187 60.2735 35.075 60.6866 35.5056C61.0998 35.951 61.4244 36.4262 61.6458 36.9458L61.631 35.9956V30.2496H62.8115V44.815H61.6753V42.2018C61.4392 42.7661 61.0998 43.2709 60.6719 43.7015C60.244 44.132 59.7275 44.4735 59.152 44.7259C58.5766 44.9783 57.9421 45.0971 57.278 45.0971C56.3042 45.112 55.4336 44.8744 54.6367 44.3844ZM59.5504 43.4045C60.1849 43.0185 60.7014 42.484 61.0703 41.8158C61.4392 41.1477 61.631 40.4053 61.631 39.5887C61.631 38.7869 61.4392 38.0445 61.0703 37.3764C60.7014 36.7083 60.1849 36.1737 59.5504 35.7877C58.9159 35.4017 58.2077 35.2086 57.4404 35.2086C56.6731 35.2086 55.9648 35.4017 55.3303 35.7877C54.6958 36.1737 54.1793 36.7083 53.8104 37.3764C53.4415 38.0445 53.2497 38.7869 53.2497 39.6035C53.2497 40.4201 53.4415 41.1625 53.8104 41.8307C54.1793 42.4988 54.681 43.0333 55.3303 43.4194C55.9648 43.8054 56.6731 43.9984 57.4404 43.9984C58.2077 43.9836 58.9012 43.7905 59.5504 43.4045Z" fill="white"></path> <path d="M75.8697 39.7954H66.7948C66.8391 40.6269 67.0457 41.3544 67.4293 41.9929C67.813 42.6313 68.2999 43.1213 68.8902 43.4628C69.4804 43.8043 70.1149 43.9825 70.7789 43.9825C71.561 43.9825 72.2397 43.7894 72.8595 43.4183C73.4645 43.0471 73.9071 42.4977 74.1875 41.7999H75.5155C75.3089 42.4383 74.9696 43.0174 74.4974 43.5073C74.04 44.0122 73.4792 44.3982 72.8447 44.6803C72.2102 44.9624 71.5315 45.096 70.8084 45.096C69.8493 45.096 68.9787 44.8436 68.1819 44.3537C67.3851 43.8637 66.7506 43.1955 66.2931 42.3492C65.8357 41.5029 65.5996 40.5824 65.5996 39.5727C65.5996 38.5631 65.8357 37.6426 66.2931 36.7962C66.7506 35.9499 67.3851 35.2818 68.1819 34.7918C68.9787 34.3019 69.8493 34.0494 70.8084 34.0494C71.7528 34.0494 72.6086 34.287 73.3759 34.7621C74.158 35.2372 74.763 35.8905 75.2057 36.6923C75.6483 37.4941 75.8697 38.3552 75.8697 39.2906C75.8844 39.454 75.8844 39.6173 75.8697 39.7954ZM74.6745 38.7264C74.6449 38.1028 74.4384 37.5238 74.0842 36.9744C73.7301 36.4251 73.2579 35.9945 72.6677 35.6827C72.0774 35.356 71.4577 35.2076 70.7789 35.2076C70.1444 35.2076 69.5542 35.356 68.9935 35.6381C68.4327 35.9351 67.9605 36.336 67.5769 36.8705C67.1932 37.405 66.9571 38.0137 66.8391 38.7264H74.6745Z" fill="white"></path> <path d="M76.416 34.3463H77.685L81.0641 42.6312L81.3002 43.433L81.5363 42.6312L84.9154 34.3315H86.1844L81.8757 44.8287H80.7247L76.416 34.3463Z" fill="white"></path> <path d="M88.162 31.675C87.9849 31.5117 87.9111 31.3038 87.9111 31.0514C87.9111 30.8138 87.9997 30.606 88.162 30.4278C88.3391 30.2496 88.5604 30.1754 88.826 30.1754C89.1064 30.1754 89.3277 30.2645 89.49 30.4278C89.6671 30.606 89.7409 30.8138 89.7409 31.0514C89.7409 31.3038 89.6523 31.5117 89.49 31.6898C89.3129 31.8532 89.0916 31.9422 88.826 31.9422C88.5604 31.9274 88.3391 31.8383 88.162 31.675ZM88.2358 34.3475H89.4162V44.8448H88.2358V34.3475Z" fill="white"></path> <path d="M94.8325 44.3694C94.0357 43.8794 93.3864 43.2113 92.929 42.3649C92.4568 41.5186 92.2207 40.5981 92.2207 39.5885C92.2207 38.5788 92.4568 37.6583 92.929 36.812C93.4012 35.9657 94.0357 35.2975 94.8325 34.8075C95.6293 34.3176 96.5147 34.0652 97.4738 34.0652C98.2411 34.0652 98.9494 34.2136 99.6134 34.5106C100.263 34.8075 100.823 35.2084 101.296 35.7429C101.768 36.2774 102.107 36.8714 102.328 37.5543H101.104C100.809 36.812 100.322 36.2329 99.6724 35.8172C99.0231 35.4014 98.3001 35.1936 97.4885 35.1936C96.795 35.1936 96.131 35.3717 95.4965 35.7429C94.862 36.0993 94.3603 36.6189 93.9767 37.2871C93.593 37.9552 93.4012 38.7124 93.4012 39.5885C93.4012 40.4645 93.593 41.2217 93.9767 41.8898C94.3603 42.558 94.8768 43.0776 95.4965 43.434C96.131 43.8052 96.7803 43.9833 97.4738 43.9833C98.2854 43.9833 99.0084 43.7755 99.6576 43.3597C100.307 42.944 100.779 42.3501 101.089 41.578H102.299C102.092 42.2759 101.753 42.8995 101.281 43.434C100.809 43.9685 100.248 44.3842 99.5986 44.6663C98.9346 44.9633 98.2263 45.1117 97.4738 45.1117C96.5147 45.1117 95.6441 44.8593 94.8325 44.3694Z" fill="white"></path> <path d="M106.622 44.3833C105.795 43.8934 105.161 43.2252 104.689 42.3789C104.217 41.5326 103.98 40.6121 103.98 39.5876C103.98 38.5779 104.217 37.6426 104.689 36.7962C105.161 35.9499 105.81 35.2818 106.622 34.7918C107.433 34.3019 108.348 34.0494 109.337 34.0494C110.325 34.0494 111.24 34.3019 112.052 34.7918C112.878 35.2818 113.513 35.9499 113.985 36.7962C114.457 37.6426 114.693 38.5779 114.693 39.5876C114.693 40.5972 114.457 41.5178 113.985 42.3641C113.513 43.2104 112.863 43.8785 112.052 44.3685C111.226 44.8585 110.325 45.1109 109.337 45.1109C108.348 45.1109 107.448 44.8733 106.622 44.3833ZM111.447 43.4034C112.081 43.0174 112.583 42.4977 112.952 41.8296C113.321 41.1614 113.513 40.419 113.513 39.5876C113.513 38.7858 113.321 38.0434 112.952 37.3753C112.583 36.7072 112.081 36.1726 111.432 35.7866C110.783 35.4006 110.089 35.2076 109.337 35.2076C108.57 35.2076 107.861 35.4006 107.227 35.7866C106.592 36.1726 106.076 36.7072 105.707 37.3753C105.338 38.0434 105.146 38.7858 105.146 39.5876C105.146 40.4042 105.338 41.1614 105.707 41.8296C106.076 42.4977 106.592 43.0322 107.227 43.4034C107.861 43.7746 108.57 43.9825 109.337 43.9825C110.119 43.9676 110.812 43.7746 111.447 43.4034Z" fill="white"></path> <path d="M118.647 34.3464V36.6923C118.839 36.1875 119.149 35.7272 119.547 35.3263C119.946 34.9255 120.418 34.6137 120.978 34.3909C121.524 34.1682 122.115 34.0494 122.734 34.0494C124.121 34.0494 125.184 34.4652 125.907 35.3115C126.63 36.1578 126.999 37.4198 126.999 39.0976V44.8139H125.804V39.1125C125.804 37.791 125.523 36.7962 124.948 36.143C124.372 35.4897 123.546 35.163 122.469 35.163C121.805 35.163 121.185 35.3263 120.61 35.6678C120.034 36.0093 119.562 36.4696 119.208 37.0783C118.854 37.6871 118.677 38.3701 118.677 39.157V44.8139H117.496V34.3167H118.647V34.3464Z" fill="white"></path> <path d="M35.5442 38.9952C35.5442 44.2364 39.7644 48.4977 44.988 48.4977V58.0001C41.5498 58.0001 38.3183 57.0796 35.5442 55.4612C34.5408 54.8821 33.5964 54.1991 32.7259 53.4419C31.1027 52.0462 29.7157 50.3685 28.6385 48.4977C27.0301 45.7063 26.1152 42.4547 26.1152 38.9952C26.1152 35.5357 27.0301 32.2841 28.6385 29.4928C29.7157 27.622 31.1027 25.9442 32.7259 24.5486C33.5964 23.7913 34.5408 23.1232 35.5442 22.5293C38.3183 20.9109 41.5498 19.9904 44.988 19.9904V29.4928C39.7791 29.4928 35.5442 33.754 35.5442 38.9952Z" fill="#FEAE06"></path> <path d="M19.8727 1V38.9949C19.8727 42.4544 18.9579 45.706 17.3495 48.4973C16.2723 50.3681 14.8852 52.0459 13.2621 53.4416C12.3915 54.1988 11.4471 54.8669 10.4437 55.4608C7.66964 57.0792 4.43811 57.9998 1 57.9998V48.4973C6.20881 48.4973 10.4437 44.2509 10.4437 38.9949C10.4437 33.7389 6.22357 29.4925 1 29.4925V19.99C4.43811 19.99 7.66964 20.9106 10.4437 22.529V1H19.8727Z" fill="#8200E8"></path> </svg> 