<?xml version="1.0" encoding="UTF-8"?> <svg xmlns="http://www.w3.org/2000/svg" viewBox="0 0 45 43"> <defs> <style>.cls-1{fill:#8200e8;}.cls-2{fill:#feae06;}</style> </defs> <g id="Layer_2" data-name="Layer 2"> <g id="Слой_1" data-name="Слой 1"> <ellipse class="cls-1" cx="22.5" cy="11" rx="11.25" ry="11"></ellipse> <path class="cls-2" d="M22.5,32.49c-6.21,0-11.25,4.7-11.25,10.51H0A19.82,19.82,0,0,1,3,32.49,19.49,19.49,0,0,1,5.4,29.36a22.34,22.34,0,0,1,5.85-4.55,23.93,23.93,0,0,1,22.5,0,22.34,22.34,0,0,1,5.85,4.55A20.73,20.73,0,0,1,42,32.49,19.82,19.82,0,0,1,45,43H33.75C33.75,37.2,28.71,32.49,22.5,32.49Z"></path> </g> </g> </svg> 