<?xml version="1.0" encoding="UTF-8"?> <svg xmlns="http://www.w3.org/2000/svg" width="30" height="30" viewBox="0 0 30 30" fill="none"> <circle cx="15" cy="15" r="15" fill="#8200E8"></circle> <path d="M22.627 10.9255L17.9395 15.5829L22.627 20.2402C22.7117 20.0631 22.7631 19.8673 22.7631 19.6582V11.5075C22.7631 11.2984 22.7117 11.1026 22.627 10.9255Z" fill="white"></path> <path d="M21.4055 10.1465H8.66622C8.45711 10.1465 8.26134 10.1979 8.08423 10.2826L14.0754 16.2436C14.6051 16.7734 15.4666 16.7734 15.9963 16.2436L21.9875 10.2826C21.8104 10.1979 21.6146 10.1465 21.4055 10.1465Z" fill="white"></path> <path d="M7.44376 10.9255C7.35903 11.1026 7.30762 11.2984 7.30762 11.5075V19.6582C7.30762 19.8674 7.35903 20.0632 7.44376 20.2402L12.1313 15.5829L7.44376 10.9255Z" fill="white"></path> <path d="M17.2997 16.2195L16.6364 16.8828C15.7537 17.7655 14.3175 17.7655 13.4348 16.8828L12.7715 16.2195L8.08398 20.8768C8.2611 20.9616 8.45686 21.013 8.66598 21.013H21.4052C21.6144 21.013 21.8101 20.9616 21.9872 20.8768L17.2997 16.2195Z" fill="white"></path> </svg> 