<?xml version="1.0" encoding="UTF-8"?> <svg xmlns="http://www.w3.org/2000/svg" width="58" height="43" viewBox="0 0 58 43" fill="none"> <path d="M36.429 9.3669e-07C24.5941 4.19371e-07 15 9.59409 15 21.429C15 33.2639 24.6295 42.858 36.4644 42.858C48.3386 42.858 58 33.2321 58 21.358L58 1.87959e-06L36.429 9.3669e-07Z" fill="#FEAE06"></path> <path d="M14.5 14C22.5081 14 29 20.4919 29 28.5C29 36.5081 22.5081 43 14.5 43C6.49187 43 -9.23487e-07 36.5081 -1.27353e-06 28.5L-1.90735e-06 14L14.5 14Z" fill="#1E72D6"></path> <path fill-rule="evenodd" clip-rule="evenodd" d="M16.283 14.1084C15.4528 16.3925 15 18.8578 15 21.4289C15 28.7797 18.715 35.2661 24.3659 39.126C27.2165 36.4782 29 32.6973 29 28.4999C29 21.0954 23.4499 14.9872 16.283 14.1084Z" fill="#56CCF2"></path> </svg> 