<?xml version="1.0" encoding="UTF-8"?> <svg xmlns="http://www.w3.org/2000/svg" viewBox="0 0 300 300"> <defs> <style>.cls-1{fill:#222b35;}.cls-2{fill:#1c242d;}</style> </defs> <g id="Layer_2" data-name="Layer 2"> <g id="Слой_1" data-name="Слой 1"> <path class="cls-1" d="M150,0h0A150,150,0,0,1,300,150v0A150,150,0,0,1,150,300H0a0,0,0,0,1,0,0V150A150,150,0,0,1,150,0Z"></path> <path class="cls-2" d="M138.83,240.29a17,17,0,0,1-8.23-2,14.85,14.85,0,0,1-5.57-5.35,14.54,14.54,0,0,1-2-7.46,14.14,14.14,0,0,1,2-7.45,14.54,14.54,0,0,1,5.57-5.46,16.19,16.19,0,0,1,8.23-2.12,15.82,15.82,0,0,1,8.24,2.12,14.3,14.3,0,0,1,5.68,5.46,14.83,14.83,0,0,1-2.45,18A16,16,0,0,1,138.83,240.29Zm-13.58-54.1q0-11.48,4.68-19.82a70.69,70.69,0,0,1,13.58-16.48l7.13-6.34a101.79,101.79,0,0,0,10.79-10.25,12.76,12.76,0,0,0,3.46-8.46,15.64,15.64,0,0,0-5.79-12.69q-5.68-4.89-17.26-4.9-10.9,0-16.81,5.35t-5.9,14.47h-27a45.73,45.73,0,0,1,5.67-22.93A39.4,39.4,0,0,1,114.9,88.33q11.35-5.79,27.83-5.79A60.34,60.34,0,0,1,168,87.66,41.7,41.7,0,0,1,185.59,102a36.66,36.66,0,0,1,6.35,21.26,34.92,34.92,0,0,1-3.79,16.48,45.45,45.45,0,0,1-8.9,12.14q-5.24,5-13.81,11.69-7.78,6-11.24,11.13a20.74,20.74,0,0,0-3.34,11.8v5.23H125.25Z"></path> </g> </g> </svg> 