<?xml version="1.0" encoding="UTF-8"?> <svg xmlns="http://www.w3.org/2000/svg" width="30" height="30" viewBox="0 0 30 30" fill="none"> <circle cx="15" cy="15" r="15" fill="#8200E8"></circle> <path d="M6.26514 15.6739L9.94217 17.0462L11.3654 21.6233C11.4565 21.9165 11.8149 22.0248 12.0529 21.8303L14.1025 20.1594C14.3174 19.9844 14.6234 19.9756 14.8479 20.1386L18.5447 22.8226C18.7992 23.0076 19.1598 22.8681 19.2237 22.5606L21.9318 9.53405C22.0015 9.19808 21.6714 8.9178 21.3515 9.04153L6.26083 14.863C5.88843 15.0067 5.89167 15.5339 6.26514 15.6739ZM11.136 16.3157L18.3223 11.8896C18.4515 11.8103 18.5843 11.985 18.4734 12.0878L12.5427 17.6008C12.3342 17.7948 12.1997 18.0545 12.1617 18.3364L11.9596 19.8336C11.9329 20.0335 11.6521 20.0533 11.5969 19.8598L10.8199 17.1297C10.7309 16.8183 10.8606 16.4857 11.136 16.3157Z" fill="white"></path> </svg> 