<?xml version="1.0" encoding="UTF-8"?> <svg xmlns="http://www.w3.org/2000/svg" viewBox="0 0 27 43"> <defs> <style>.cls-1{fill:#1e72d6;}.cls-2{fill:#a501eb;}.cls-3{fill:#fddc33;fill-rule:evenodd;}</style> </defs> <g id="Layer_2" data-name="Layer 2"> <g id="Слой_1" data-name="Слой 1"> <path class="cls-1" d="M0,16v9A18,18,0,0,0,18,43h8V34A18,18,0,0,0,8,16Z"></path> <path class="cls-2" d="M27,0H18A18,18,0,0,0,0,18v8H9A18,18,0,0,0,27,8Z"></path> <path class="cls-3" d="M20.93,21.48A17.94,17.94,0,0,0,8,16H.11A18.66,18.66,0,0,0,0,18v7c0,.34,0,.67,0,1H9A18,18,0,0,0,20.93,21.48Z"></path> </g> </g> </svg> 