<?xml version="1.0" encoding="UTF-8"?> <svg xmlns="http://www.w3.org/2000/svg" width="160" height="34" viewBox="0 0 160 34" fill="none"> <path d="M67.188 15.5036H64.0943V11.2876H60.5298V22.6436H64.1616V18.6316H67.2553V22.6436H70.8871V11.2876H67.2553V15.5036H67.188ZM100.681 15.5036H97.5874V11.2876H93.9556V22.6436H97.5874V18.6316H100.681V22.6436H104.313V11.2876H100.681V15.5036ZM155.763 14.6196H154.014V11.2876H150.383V22.6436H155.696C158.05 22.6436 159.933 21.3516 159.933 19.0396V18.2236C160 15.9116 158.05 14.6196 155.763 14.6196ZM155.36 19.8556H154.014V17.4076H155.225C156.234 17.4076 156.503 18.1556 156.503 18.6316C156.503 19.6516 155.629 19.8556 155.36 19.8556ZM132.493 18.3596H136.528V15.6396H132.493V14.2796H136.932V11.3556H128.861V22.7116H137.201V19.7196H132.493V18.3596ZM128.054 11.2876H124.153L122.27 15.5716H121.396V11.2876H117.764V22.6436H121.396V18.6316H122.27L124.22 22.6436H128.39L125.364 16.9316L128.054 11.2876ZM78.0161 11.1516H76.2675C73.9136 11.1516 72.0304 12.8516 72.0304 15.4356V18.6316C72.0304 21.2836 73.9136 22.9156 76.2675 22.9156H78.0161C80.3701 22.9156 82.2532 21.2156 82.2532 18.6316V15.4356C82.3205 12.6476 80.3701 11.1516 78.0161 11.1516ZM78.6887 18.8356C78.6887 19.5836 78.0834 20.1956 77.3436 20.1956H77.0073C76.2675 20.1956 75.6622 19.5836 75.6622 18.8356V15.1636C75.6622 14.4156 76.2675 13.8036 77.0073 13.8036H77.3436C78.0834 13.8036 78.6887 14.4156 78.6887 15.1636V18.8356ZM139.958 17.3396C139.958 19.0396 139.487 19.3116 138.882 19.5836C138.613 19.7196 137.873 19.7196 137.873 19.7196V22.7116H139.286C142.312 22.7116 143.455 20.9436 143.455 16.9316V14.3476H145.473V22.7116H149.105V11.2876H140.025V17.3396H139.958ZM88.8442 11.2876H83.531V22.6436H87.1628V19.8556H88.9115C91.2654 19.8556 93.1485 18.5636 93.1485 16.2516V14.9596C93.0813 12.5796 91.1981 11.2876 88.8442 11.2876ZM89.584 15.9116C89.584 16.3196 89.3822 17.1356 88.3062 17.1356H87.0956V14.1436H88.4407C88.7769 14.1436 89.5168 14.4156 89.5168 15.2996V15.9116H89.584ZM109.29 17.0676V11.3556H105.86V22.7116H109.021L112.72 16.9996V22.7116H116.15V11.2876H112.989L109.29 17.0676Z" fill="white"></path> <path d="M16.814 22.508L33.6278 34V11.492L16.814 0V22.508Z" fill="#00589C"></path> <path d="M0 17C0 26.384 7.53258 34 16.8138 34V0C7.53258 0 0 7.616 0 17ZM33.6276 0V34C42.9088 34 50.4414 26.384 50.4414 17C50.4414 7.616 42.9088 0 33.6276 0Z" fill="#0080C8"></path> </svg> 