<?xml version="1.0" encoding="UTF-8"?> <svg xmlns="http://www.w3.org/2000/svg" viewBox="0 0 41.56 54.62"> <defs> <style>.cls-1{fill:#feae06;}</style> </defs> <g id="Layer_2" data-name="Layer 2"> <g id="Слой_1" data-name="Слой 1"> <path class="cls-1" d="M25.71,32.2A14.36,14.36,0,0,0,19.4,12.9L25.87,0a28.15,28.15,0,0,1,11,9.85,26.77,26.77,0,0,1,2.44,4.65A29.09,29.09,0,0,1,41.52,24a29.21,29.21,0,0,1-12.94,25.8,29.13,29.13,0,0,1-8.89,3.94,30,30,0,0,1-5.19.83A28.28,28.28,0,0,1,0,51.6L6.47,38.7A14.37,14.37,0,0,0,25.71,32.2Z"></path> </g> </g> </svg> 